<svg id="visual" viewBox="0 0 900 600" width="900" height="600" xmlns="http://www.w3.org/2000/svg" xmlns:xlink="http://www.w3.org/1999/xlink" version="1.1"><path d="M0 360L21.5 358.3C43 356.7 86 353.3 128.8 356.5C171.7 359.7 214.3 369.3 257.2 385C300 400.7 343 422.3 385.8 431.7C428.7 441 471.3 438 514.2 422.3C557 406.7 600 378.3 642.8 377C685.7 375.7 728.3 401.3 771.2 405.8C814 410.3 857 393.7 878.5 385.3L900 377L900 601L878.5 601C857 601 814 601 771.2 601C728.3 601 685.7 601 642.8 601C600 601 557 601 514.2 601C471.3 601 428.7 601 385.8 601C343 601 300 601 257.2 601C214.3 601 171.7 601 128.8 601C86 601 43 601 21.5 601L0 601Z" fill="#40bd78"></path><path d="M0 478L21.5 474.2C43 470.3 86 462.7 128.8 449.8C171.7 437 214.3 419 257.2 415.7C300 412.3 343 423.7 385.8 433C428.7 442.3 471.3 449.7 514.2 450.2C557 450.7 600 444.3 642.8 439.7C685.7 435 728.3 432 771.2 426.3C814 420.7 857 412.3 878.5 408.2L900 404L900 601L878.5 601C857 601 814 601 771.2 601C728.3 601 685.7 601 642.8 601C600 601 557 601 514.2 601C471.3 601 428.7 601 385.8 601C343 601 300 601 257.2 601C214.3 601 171.7 601 128.8 601C86 601 43 601 21.5 601L0 601Z" fill="#009895"></path><path d="M0 496L21.5 495.2C43 494.3 86 492.7 128.8 486.7C171.7 480.7 214.3 470.3 257.2 468.8C300 467.3 343 474.7 385.8 481.7C428.7 488.7 471.3 495.3 514.2 488.2C557 481 600 460 642.8 450.5C685.7 441 728.3 443 771.2 451.5C814 460 857 475 878.5 482.5L900 490L900 601L878.5 601C857 601 814 601 771.2 601C728.3 601 685.7 601 642.8 601C600 601 557 601 514.2 601C471.3 601 428.7 601 385.8 601C343 601 300 601 257.2 601C214.3 601 171.7 601 128.8 601C86 601 43 601 21.5 601L0 601Z" fill="#007f91"></path><path d="M0 511L21.5 509.8C43 508.7 86 506.3 128.8 501.7C171.7 497 214.3 490 257.2 494.7C300 499.3 343 515.7 385.8 519.2C428.7 522.7 471.3 513.3 514.2 513.8C557 514.3 600 524.7 642.8 525.8C685.7 527 728.3 519 771.2 514.8C814 510.7 857 510.3 878.5 510.2L900 510L900 601L878.5 601C857 601 814 601 771.2 601C728.3 601 685.7 601 642.8 601C600 601 557 601 514.2 601C471.3 601 428.7 601 385.8 601C343 601 300 601 257.2 601C214.3 601 171.7 601 128.8 601C86 601 43 601 21.5 601L0 601Z" fill="#009895"></path><path d="M0 554L21.5 554.7C43 555.3 86 556.7 128.8 558.3C171.7 560 214.3 562 257.2 562.7C300 563.3 343 562.7 385.8 564.2C428.7 565.7 471.3 569.3 514.2 570.2C557 571 600 569 642.8 564.2C685.7 559.3 728.3 551.7 771.2 547.5C814 543.3 857 542.7 878.5 542.3L900 542L900 601L878.5 601C857 601 814 601 771.2 601C728.3 601 685.7 601 642.8 601C600 601 557 601 514.2 601C471.3 601 428.7 601 385.8 601C343 601 300 601 257.2 601C214.3 601 171.7 601 128.8 601C86 601 43 601 21.5 601L0 601Z" fill="#40bd78"></path></svg>