<svg id="visual" viewBox="0 0 960 540" width="960" height="540" xmlns="http://www.w3.org/2000/svg" xmlns:xlink="http://www.w3.org/1999/xlink" version="1.1"><rect x="0" y="0" width="960" height="540" fill="#0B6581"></rect><path d="M0 56L22.8 57.7C45.7 59.3 91.3 62.7 137 67C182.7 71.3 228.3 76.7 274 76.8C319.7 77 365.3 72 411.2 67.7C457 63.3 503 59.7 548.8 59.5C594.7 59.3 640.3 62.7 686 64.7C731.7 66.7 777.3 67.3 823 68C868.7 68.7 914.3 69.3 937.2 69.7L960 70L960 0L937.2 0C914.3 0 868.7 0 823 0C777.3 0 731.7 0 686 0C640.3 0 594.7 0 548.8 0C503 0 457 0 411.2 0C365.3 0 319.7 0 274 0C228.3 0 182.7 0 137 0C91.3 0 45.7 0 22.8 0L0 0Z" fill="#0b6581"></path><path d="M0 50L22.8 48.8C45.7 47.7 91.3 45.3 137 46.7C182.7 48 228.3 53 274 57.3C319.7 61.7 365.3 65.3 411.2 62.3C457 59.3 503 49.7 548.8 47C594.7 44.3 640.3 48.7 686 49.7C731.7 50.7 777.3 48.3 823 49.2C868.7 50 914.3 54 937.2 56L960 58L960 0L937.2 0C914.3 0 868.7 0 823 0C777.3 0 731.7 0 686 0C640.3 0 594.7 0 548.8 0C503 0 457 0 411.2 0C365.3 0 319.7 0 274 0C228.3 0 182.7 0 137 0C91.3 0 45.7 0 22.8 0L0 0Z" fill="#009a93"></path><path d="M0 34L22.8 32.3C45.7 30.7 91.3 27.3 137 27.7C182.7 28 228.3 32 274 32C319.7 32 365.3 28 411.2 30.3C457 32.7 503 41.3 548.8 45.7C594.7 50 640.3 50 686 46.7C731.7 43.3 777.3 36.7 823 32.7C868.7 28.7 914.3 27.3 937.2 26.7L960 26L960 0L937.2 0C914.3 0 868.7 0 823 0C777.3 0 731.7 0 686 0C640.3 0 594.7 0 548.8 0C503 0 457 0 411.2 0C365.3 0 319.7 0 274 0C228.3 0 182.7 0 137 0C91.3 0 45.7 0 22.8 0L0 0Z" fill="#66c86a"></path><path d="M0 31L22.8 29.7C45.7 28.3 91.3 25.7 137 24.7C182.7 23.7 228.3 24.3 274 22.5C319.7 20.7 365.3 16.3 411.2 14.7C457 13 503 14 548.8 17C594.7 20 640.3 25 686 26.3C731.7 27.7 777.3 25.3 823 24.3C868.7 23.3 914.3 23.7 937.2 23.8L960 24L960 0L937.2 0C914.3 0 868.7 0 823 0C777.3 0 731.7 0 686 0C640.3 0 594.7 0 548.8 0C503 0 457 0 411.2 0C365.3 0 319.7 0 274 0C228.3 0 182.7 0 137 0C91.3 0 45.7 0 22.8 0L0 0Z" fill="#ffe032"></path></svg>