<svg id="visual" viewBox="0 0 960 540" width="960" height="540" xmlns="http://www.w3.org/2000/svg" xmlns:xlink="http://www.w3.org/1999/xlink" version="1.1"><path d="M0 503L320 233L640 82L960 82L960 0L640 0L320 0L0 0Z" fill="#ffe032"></path><path d="M0 509L320 298L640 114L960 185L960 80L640 80L320 231L0 501Z" fill="#8ad05a"></path><path d="M0 509L320 384L640 298L960 282L960 183L640 112L320 296L0 507Z" fill="#00b284"></path><path d="M0 525L320 428L640 428L960 298L960 280L640 296L320 382L0 507Z" fill="#008c94"></path><path d="M0 541L320 541L640 541L960 541L960 296L640 426L320 426L0 523Z" fill="#006481"></path></svg>