<svg id="visual" viewBox="0 0 960 540" width="960" height="540" xmlns="http://www.w3.org/2000/svg" xmlns:xlink="http://www.w3.org/1999/xlink" version="1.1"><path d="M0 6L80 42C160 78 320 150 480 178.8C640 207.7 800 193.3 880 186.2L960 179L960 0L880 0C800 0 640 0 480 0C320 0 160 0 80 0L0 0Z" fill="#ffe032"></path><path d="M0 104L80 136.3C160 168.7 320 233.3 480 246.8C640 260.3 800 222.7 880 203.8L960 185L960 177L880 184.2C800 191.3 640 205.7 480 176.8C320 148 160 76 80 40L0 4Z" fill="#afd84a"></path><path d="M0 195L80 227.5C160 260 320 325 480 324.2C640 323.3 800 256.7 880 223.3L960 190L960 183L880 201.8C800 220.7 640 258.3 480 244.8C320 231.3 160 166.7 80 134.3L0 102Z" fill="#66c76a"></path><path d="M0 303L80 322.8C160 342.7 320 382.3 480 391.3C640 400.3 800 378.7 880 367.8L960 357L960 188L880 221.3C800 254.7 640 321.3 480 322.2C320 323 160 258 80 225.5L0 193Z" fill="#00b284"></path><path d="M0 384L80 403C160 422 320 460 480 474.5C640 489 800 480 880 475.5L960 471L960 355L880 365.8C800 376.7 640 398.3 480 389.3C320 380.3 160 340.7 80 320.8L0 301Z" fill="#009992"></path><path d="M0 395L80 418.5C160 442 320 489 480 502.5C640 516 800 496 880 486L960 476L960 469L880 473.5C800 478 640 487 480 472.5C320 458 160 420 80 401L0 382Z" fill="#007f91"></path><path d="M0 541L80 541C160 541 320 541 480 541C640 541 800 541 880 541L960 541L960 474L880 484C800 494 640 514 480 500.5C320 487 160 440 80 416.5L0 393Z" fill="#006481"></path></svg>