<svg id="visual" viewBox="0 0 960 540" width="960" height="540" xmlns="http://www.w3.org/2000/svg" xmlns:xlink="http://www.w3.org/1999/xlink" version="1.1"><path d="M0 114L80 118.5C160 123 320 132 480 113C640 94 800 47 880 23.5L960 0L960 0L880 0C800 0 640 0 480 0C320 0 160 0 80 0L0 0Z" fill="#ffe032"></path><path d="M0 217L80 218.8C160 220.7 320 224.3 480 210C640 195.7 800 163.3 880 147.2L960 131L960 0L880 23.2C800 46.3 640 92.7 480 111.3C320 130 160 121 80 116.5L0 112Z" fill="#40bd78"></path><path d="M0 287L80 279.8C160 272.7 320 258.3 480 235.8C640 213.3 800 182.7 880 167.3L960 152L960 129L880 145.2C800 161.3 640 193.7 480 208C320 222.3 160 218.7 80 216.8L0 215Z" fill="#007f91"></path><path d="M0 298L80 295.3C160 292.7 320 287.3 480 264C640 240.7 800 199.3 880 178.7L960 158L960 150L880 165.3C800 180.7 640 211.3 480 233.8C320 256.3 160 270.7 80 277.8L0 285Z" fill="#006481"></path><path d="M0 465L80 439C160 413 320 361 480 354.8C640 348.7 800 388.3 880 408.2L960 428L960 156L880 176.7C800 197.3 640 238.7 480 262C320 285.3 160 290.7 80 293.3L0 296Z" fill="#007f91"></path><path d="M0 482L80 468.5C160 455 320 428 480 428C640 428 800 455 880 468.5L960 482L960 426L880 406.2C800 386.3 640 346.7 480 352.8C320 359 160 411 80 437L0 463Z" fill="#40bd78"></path><path d="M0 541L80 541C160 541 320 541 480 541C640 541 800 541 880 541L960 541L960 480L880 466.5C800 453 640 426 480 426C320 426 160 453 80 466.5L0 480Z" fill="#ffe032"></path></svg>