<svg id="visual" viewBox="0 0 960 540" width="960" height="540" xmlns="http://www.w3.org/2000/svg" xmlns:xlink="http://www.w3.org/1999/xlink" version="1.1"><path d="M0 98L80 127.7C160 157.3 320 216.7 480 226.7C640 236.7 800 197.3 880 177.7L960 158L960 0L880 0C800 0 640 0 480 0C320 0 160 0 80 0L0 0Z" fill="#ffe032"></path><path d="M0 168L80 199.5C160 231 320 294 480 304C640 314 800 271 880 249.5L960 228L960 156L880 175.7C800 195.3 640 234.7 480 224.7C320 214.7 160 155.3 80 125.7L0 96Z" fill="#40bd78"></path><path d="M0 179L80 217.7C160 256.3 320 333.7 480 343.7C640 353.7 800 296.3 880 267.7L960 239L960 226L880 247.5C800 269 640 312 480 302C320 292 160 229 80 197.5L0 166Z" fill="#007f91"></path><path d="M0 276L80 303C160 330 320 384 480 392.2C640 400.3 800 362.7 880 343.8L960 325L960 237L880 265.7C800 294.3 640 351.7 480 341.7C320 331.7 160 254.3 80 215.7L0 177Z" fill="#006481"></path><path d="M0 438L80 443.5C160 449 320 460 480 459.2C640 458.3 800 445.7 880 439.3L960 433L960 323L880 341.8C800 360.7 640 398.3 480 390.2C320 382 160 328 80 301L0 274Z" fill="#007f91"></path><path d="M0 530L80 531C160 532 320 534 480 528.7C640 523.3 800 510.7 880 504.3L960 498L960 431L880 437.3C800 443.7 640 456.3 480 457.2C320 458 160 447 80 441.5L0 436Z" fill="#40bd78"></path><path d="M0 541L80 541C160 541 320 541 480 541C640 541 800 541 880 541L960 541L960 496L880 502.3C800 508.7 640 521.3 480 526.7C320 532 160 530 80 529L0 528Z" fill="#ffe032"></path></svg>