<svg id="visual" viewBox="0 0 960 540" width="960" height="540" xmlns="http://www.w3.org/2000/svg" xmlns:xlink="http://www.w3.org/1999/xlink" version="1.1"><path d="M0 120L80 102.8C160 85.7 320 51.3 480 36C640 20.7 800 24.3 880 26.2L960 28L960 0L880 0C800 0 640 0 480 0C320 0 160 0 80 0L0 0Z" fill="#ffe032"></path><path d="M0 190L80 163C160 136 320 82 480 61.3C640 40.7 800 53.3 880 59.7L960 66L960 26L880 24.2C800 22.3 640 18.7 480 34C320 49.3 160 83.7 80 100.8L0 118Z" fill="#40bd78"></path><path d="M0 206L80 223.2C160 240.3 320 274.7 480 257.7C640 240.7 800 172.3 880 138.2L960 104L960 64L880 57.7C800 51.3 640 38.7 480 59.3C320 80 160 134 80 161L0 188Z" fill="#007f91"></path><path d="M0 212L80 231.7C160 251.3 320 290.7 480 275.3C640 260 800 190 880 155L960 120L960 102L880 136.2C800 170.3 640 238.7 480 255.7C320 272.7 160 238.3 80 221.2L0 204Z" fill="#006481"></path><path d="M0 276L80 296.8C160 317.7 320 359.3 480 339.7C640 320 800 239 880 198.5L960 158L960 118L880 153C800 188 640 258 480 273.3C320 288.7 160 249.3 80 229.7L0 210Z" fill="#007f91"></path><path d="M0 530L80 519.2C160 508.3 320 486.7 480 464.2C640 441.7 800 418.3 880 406.7L960 395L960 156L880 196.5C800 237 640 318 480 337.7C320 357.3 160 315.7 80 294.8L0 274Z" fill="#40bd78"></path><path d="M0 541L80 541C160 541 320 541 480 541C640 541 800 541 880 541L960 541L960 393L880 404.7C800 416.3 640 439.7 480 462.2C320 484.7 160 506.3 80 517.2L0 528Z" fill="#ffe032"></path></svg>