<svg id="visual" viewBox="0 0 1920 56" width="1920" height="56" xmlns="http://www.w3.org/2000/svg" xmlns:xlink="http://www.w3.org/1999/xlink" version="1.1"><path d="M1401 56L1394.5 52.8C1388 49.7 1375 43.3 1355.7 37.2C1336.3 31 1310.7 25 1301.2 18.8C1291.7 12.7 1298.3 6.3 1301.7 3.2L1305 0L1920 0L1920 3.2C1920 6.3 1920 12.7 1920 18.8C1920 25 1920 31 1920 37.2C1920 43.3 1920 49.7 1920 52.8L1920 56Z" fill="#006481"></path><path d="M1074 56L1067.7 52.8C1061.3 49.7 1048.7 43.3 1032.7 37.2C1016.7 31 997.3 25 990.8 18.8C984.3 12.7 990.7 6.3 993.8 3.2L997 0L1306 0L1302.7 3.2C1299.3 6.3 1292.7 12.7 1302.2 18.8C1311.7 25 1337.3 31 1356.7 37.2C1376 43.3 1389 49.7 1395.5 52.8L1402 56Z" fill="#6690a5"></path><path d="M402 56L392.5 52.8C383 49.7 364 43.3 367.2 37.2C370.3 31 395.7 25 408.3 18.8C421 12.7 421 6.3 421 3.2L421 0L998 0L994.8 3.2C991.7 6.3 985.3 12.7 991.8 18.8C998.3 25 1017.7 31 1033.7 37.2C1049.7 43.3 1062.3 49.7 1068.7 52.8L1075 56Z" fill="#abbec9"></path><path d="M0 56L0 52.8C0 49.7 0 43.3 0 37.2C0 31 0 25 0 18.8C0 12.7 0 6.3 0 3.2L0 0L422 0L422 3.2C422 6.3 422 12.7 409.3 18.8C396.7 25 371.3 31 368.2 37.2C365 43.3 384 49.7 393.5 52.8L403 56Z" fill="#efefef"></path></svg>