<svg id="visual" viewBox="0 0 960 540" width="960" height="540" xmlns="http://www.w3.org/2000/svg" xmlns:xlink="http://www.w3.org/1999/xlink" version="1.1"><path d="M0 206L80 197C160 188 320 170 480 135.7C640 101.3 800 50.7 880 25.3L960 0L960 0L880 0C800 0 640 0 480 0C320 0 160 0 80 0L0 0Z" fill="#ffe032"></path><path d="M0 330L80 329.2C160 328.3 320 326.7 480 300.7C640 274.7 800 224.3 880 199.2L960 174L960 0L880 25C800 50 640 100 480 134C320 168 160 186 80 195L0 204Z" fill="#afd84a"></path><path d="M0 379L80 385.3C160 391.7 320 404.3 480 386.3C640 368.3 800 319.7 880 295.3L960 271L960 172L880 197.2C800 222.3 640 272.7 480 298.7C320 324.7 160 326.3 80 327.2L0 328Z" fill="#66c76a"></path><path d="M0 384L80 391.3C160 398.7 320 413.3 480 419.7C640 426 800 424 880 423L960 422L960 269L880 293.3C800 317.7 640 366.3 480 384.3C320 402.3 160 389.7 80 383.3L0 377Z" fill="#00b284"></path><path d="M0 428L80 440.5C160 453 320 478 480 481.5C640 485 800 467 880 458L960 449L960 420L880 421C800 422 640 424 480 417.7C320 411.3 160 396.7 80 389.3L0 382Z" fill="#009992"></path><path d="M0 476L80 480.5C160 485 320 494 480 499.5C640 505 800 507 880 508L960 509L960 447L880 456C800 465 640 483 480 479.5C320 476 160 451 80 438.5L0 426Z" fill="#007f91"></path><path d="M0 541L80 541C160 541 320 541 480 541C640 541 800 541 880 541L960 541L960 507L880 506C800 505 640 503 480 497.5C320 492 160 483 80 478.5L0 474Z" fill="#006481"></path></svg>