<svg id="visual" viewBox="0 0 960 540" width="960" height="540" xmlns="http://www.w3.org/2000/svg" xmlns:xlink="http://www.w3.org/1999/xlink" version="1.1"><path d="M0 77L80 77C160 77 320 77 480 68.8C640 60.7 800 44.3 880 36.2L960 28L960 0L880 0C800 0 640 0 480 0C320 0 160 0 80 0L0 0Z" fill="#ffe032"></path><path d="M0 114L80 152.8C160 191.7 320 269.3 480 305.3C640 341.3 800 335.7 880 332.8L960 330L960 26L880 34.2C800 42.3 640 58.7 480 66.8C320 75 160 75 80 75L0 75Z" fill="#afd84a"></path><path d="M0 174L80 204.5C160 235 320 296 480 323C640 350 800 343 880 339.5L960 336L960 328L880 330.8C800 333.7 640 339.3 480 303.3C320 267.3 160 189.7 80 150.8L0 112Z" fill="#66c76a"></path><path d="M0 239L80 266C160 293 320 347 480 371.2C640 395.3 800 389.7 880 386.8L960 384L960 334L880 337.5C800 341 640 348 480 321C320 294 160 233 80 202.5L0 172Z" fill="#00b284"></path><path d="M0 411L80 415.5C160 420 320 429 480 425.5C640 422 800 406 880 398L960 390L960 382L880 384.8C800 387.7 640 393.3 480 369.2C320 345 160 291 80 264L0 237Z" fill="#009992"></path><path d="M0 482L80 474.7C160 467.3 320 452.7 480 449C640 445.3 800 452.7 880 456.3L960 460L960 388L880 396C800 404 640 420 480 423.5C320 427 160 418 80 413.5L0 409Z" fill="#007f91"></path><path d="M0 541L80 541C160 541 320 541 480 541C640 541 800 541 880 541L960 541L960 458L880 454.3C800 450.7 640 443.3 480 447C320 450.7 160 465.3 80 472.7L0 480Z" fill="#006481"></path></svg>