<svg id="visual" viewBox="0 0 960 540" width="960" height="540" xmlns="http://www.w3.org/2000/svg" xmlns:xlink="http://www.w3.org/1999/xlink" version="1.1"><path d="M0 168L80 162.7C160 157.3 320 146.7 480 121.5C640 96.3 800 56.7 880 36.8L960 17L960 0L880 0C800 0 640 0 480 0C320 0 160 0 80 0L0 0Z" fill="#006481"></path><path d="M0 212L80 218.2C160 224.3 320 236.7 480 208.7C640 180.7 800 112.3 880 78.2L960 44L960 15L880 34.8C800 54.7 640 94.3 480 119.5C320 144.7 160 155.3 80 160.7L0 166Z" fill="#00a68d"></path><path d="M0 298L80 302.5C160 307 320 316 480 282.7C640 249.3 800 173.7 880 135.8L960 98L960 42L880 76.2C800 110.3 640 178.7 480 206.7C320 234.7 160 222.3 80 216.2L0 210Z" fill="#afd84a"></path><path d="M0 347L80 356C160 365 320 383 480 350.5C640 318 800 235 880 193.5L960 152L960 96L880 133.8C800 171.7 640 247.3 480 280.7C320 314 160 305 80 300.5L0 296Z" fill="#ffe032"></path><path d="M0 433L80 436.7C160 440.3 320 447.7 480 413.5C640 379.3 800 303.7 880 265.8L960 228L960 150L880 191.5C800 233 640 316 480 348.5C320 381 160 363 80 354L0 345Z" fill="#afd84a"></path><path d="M0 541L80 535.7C160 530.3 320 519.7 480 504.3C640 489 800 469 880 459L960 449L960 226L880 263.8C800 301.7 640 377.3 480 411.5C320 445.7 160 438.3 80 434.7L0 431Z" fill="#00a68d"></path><path d="M0 541L80 541C160 541 320 541 480 541C640 541 800 541 880 541L960 541L960 447L880 457C800 467 640 487 480 502.3C320 517.7 160 528.3 80 533.7L0 539Z" fill="#006481"></path></svg>