<svg id="visual" viewBox="0 0 960 540" width="960" height="540" xmlns="http://www.w3.org/2000/svg" xmlns:xlink="http://www.w3.org/1999/xlink" version="1.1"><path d="M0 222L80 197.8C160 173.7 320 125.3 480 118.2C640 111 800 145 880 162L960 179L960 0L880 0C800 0 640 0 480 0C320 0 160 0 80 0L0 0Z" fill="#ffe032"></path><path d="M0 266L80 245.2C160 224.3 320 182.7 480 185.3C640 188 800 235 880 258.5L960 282L960 177L880 160C800 143 640 109 480 116.2C320 123.3 160 171.7 80 195.8L0 220Z" fill="#40bd78"></path><path d="M0 341L80 316.7C160 292.3 320 243.7 480 244.7C640 245.7 800 296.3 880 321.7L960 347L960 280L880 256.5C800 233 640 186 480 183.3C320 180.7 160 222.3 80 243.2L0 264Z" fill="#007f91"></path><path d="M0 347L80 332.5C160 318 320 289 480 301.5C640 314 800 368 880 395L960 422L960 345L880 319.7C800 294.3 640 243.7 480 242.7C320 241.7 160 290.3 80 314.7L0 339Z" fill="#006481"></path><path d="M0 406L80 411.3C160 416.7 320 427.3 480 431C640 434.7 800 431.3 880 429.7L960 428L960 420L880 393C800 366 640 312 480 299.5C320 287 160 316 80 330.5L0 345Z" fill="#007f91"></path><path d="M0 406L80 416.8C160 427.7 320 449.3 480 457.5C640 465.7 800 460.3 880 457.7L960 455L960 426L880 427.7C800 429.3 640 432.7 480 429C320 425.3 160 414.7 80 409.3L0 404Z" fill="#40bd78"></path><path d="M0 541L80 541C160 541 320 541 480 541C640 541 800 541 880 541L960 541L960 453L880 455.7C800 458.3 640 463.7 480 455.5C320 447.3 160 425.7 80 414.8L0 404Z" fill="#ffe032"></path></svg>