<svg id="visual" viewBox="0 0 960 540" width="960" height="540" xmlns="http://www.w3.org/2000/svg" xmlns:xlink="http://www.w3.org/1999/xlink" version="1.1"><path d="M0 168L14.5 159C29 150 58 132 87.2 127.5C116.3 123 145.7 132 174.8 145.5C204 159 233 177 262 176.2C291 175.3 320 155.7 349 153C378 150.3 407 164.7 436.2 157.5C465.3 150.3 494.7 121.7 523.8 114.5C553 107.3 582 121.7 611 131.5C640 141.3 669 146.7 698 162.8C727 179 756 206 785.2 199.7C814.3 193.3 843.7 153.7 872.8 126.7C902 99.7 931 85.3 945.5 78.2L960 71L960 0L945.5 0C931 0 902 0 872.8 0C843.7 0 814.3 0 785.2 0C756 0 727 0 698 0C669 0 640 0 611 0C582 0 553 0 523.8 0C494.7 0 465.3 0 436.2 0C407 0 378 0 349 0C320 0 291 0 262 0C233 0 204 0 174.8 0C145.7 0 116.3 0 87.2 0C58 0 29 0 14.5 0L0 0Z" fill="#ffe032"></path><path d="M0 293L14.5 283C29 273 58 253 87.2 241.2C116.3 229.3 145.7 225.7 174.8 245.5C204 265.3 233 308.7 262 301.5C291 294.3 320 236.7 349 220.5C378 204.3 407 229.7 436.2 228.8C465.3 228 494.7 201 523.8 199.2C553 197.3 582 220.7 611 237.7C640 254.7 669 265.3 698 277C727 288.7 756 301.3 785.2 296.8C814.3 292.3 843.7 270.7 872.8 251.8C902 233 931 217 945.5 209L960 201L960 69L945.5 76.2C931 83.3 902 97.7 872.8 124.7C843.7 151.7 814.3 191.3 785.2 197.7C756 204 727 177 698 160.8C669 144.7 640 139.3 611 129.5C582 119.7 553 105.3 523.8 112.5C494.7 119.7 465.3 148.3 436.2 155.5C407 162.7 378 148.3 349 151C320 153.7 291 173.3 262 174.2C233 175 204 157 174.8 143.5C145.7 130 116.3 121 87.2 125.5C58 130 29 148 14.5 157L0 166Z" fill="#8ad05a"></path><path d="M0 374L14.5 377.5C29 381 58 388 87.2 391.5C116.3 395 145.7 395 174.8 404C204 413 233 431 262 425.7C291 420.3 320 391.7 349 389.8C378 388 407 413 436.2 412C465.3 411 494.7 384 523.8 373.3C553 362.7 582 368.3 611 377.3C640 386.3 669 398.7 698 413C727 427.3 756 443.7 785.2 451.8C814.3 460 843.7 460 872.8 445.7C902 431.3 931 402.7 945.5 388.3L960 374L960 199L945.5 207C931 215 902 231 872.8 249.8C843.7 268.7 814.3 290.3 785.2 294.8C756 299.3 727 286.7 698 275C669 263.3 640 252.7 611 235.7C582 218.7 553 195.3 523.8 197.2C494.7 199 465.3 226 436.2 226.8C407 227.7 378 202.3 349 218.5C320 234.7 291 292.3 262 299.5C233 306.7 204 263.3 174.8 243.5C145.7 223.7 116.3 227.3 87.2 239.2C58 251 29 271 14.5 281L0 291Z" fill="#00b284"></path><path d="M0 428L14.5 434.2C29 440.3 58 452.7 87.2 452.7C116.3 452.7 145.7 440.3 174.8 444C204 447.7 233 467.3 262 470C291 472.7 320 458.3 349 456.5C378 454.7 407 465.3 436.2 464.3C465.3 463.3 494.7 450.7 523.8 446.2C553 441.7 582 445.3 611 452.7C640 460 669 471 698 478.2C727 485.3 756 488.7 785.2 490.3C814.3 492 843.7 492 872.8 484C902 476 931 460 945.5 452L960 444L960 372L945.5 386.3C931 400.7 902 429.3 872.8 443.7C843.7 458 814.3 458 785.2 449.8C756 441.7 727 425.3 698 411C669 396.7 640 384.3 611 375.3C582 366.3 553 360.7 523.8 371.3C494.7 382 465.3 409 436.2 410C407 411 378 386 349 387.8C320 389.7 291 418.3 262 423.7C233 429 204 411 174.8 402C145.7 393 116.3 393 87.2 389.5C58 386 29 379 14.5 375.5L0 372Z" fill="#008c94"></path><path d="M0 541L14.5 541C29 541 58 541 87.2 541C116.3 541 145.7 541 174.8 541C204 541 233 541 262 541C291 541 320 541 349 541C378 541 407 541 436.2 541C465.3 541 494.7 541 523.8 541C553 541 582 541 611 541C640 541 669 541 698 541C727 541 756 541 785.2 541C814.3 541 843.7 541 872.8 541C902 541 931 541 945.5 541L960 541L960 442L945.5 450C931 458 902 474 872.8 482C843.7 490 814.3 490 785.2 488.3C756 486.7 727 483.3 698 476.2C669 469 640 458 611 450.7C582 443.3 553 439.7 523.8 444.2C494.7 448.7 465.3 461.3 436.2 462.3C407 463.3 378 452.7 349 454.5C320 456.3 291 470.7 262 468C233 465.3 204 445.7 174.8 442C145.7 438.3 116.3 450.7 87.2 450.7C58 450.7 29 438.3 14.5 432.2L0 426Z" fill="#006481"></path></svg>