<svg id="visual" viewBox="0 0 960 540" width="960" height="540" xmlns="http://www.w3.org/2000/svg" xmlns:xlink="http://www.w3.org/1999/xlink" version="1.1"><rect x="0" y="0" width="960" height="540" fill="#006481"></rect><path d="M0 422L22.8 428.8C45.7 435.7 91.3 449.3 137 436.8C182.7 424.3 228.3 385.7 274 375.2C319.7 364.7 365.3 382.3 411.2 393.5C457 404.7 503 409.3 548.8 401C594.7 392.7 640.3 371.3 686 364.7C731.7 358 777.3 366 823 384.3C868.7 402.7 914.3 431.3 937.2 445.7L960 460L960 541L937.2 541C914.3 541 868.7 541 823 541C777.3 541 731.7 541 686 541C640.3 541 594.7 541 548.8 541C503 541 457 541 411.2 541C365.3 541 319.7 541 274 541C228.3 541 182.7 541 137 541C91.3 541 45.7 541 22.8 541L0 541Z" fill="#FFE032" stroke-linecap="round" stroke-linejoin="miter"></path></svg>