<svg id="visual" viewBox="0 0 960 540" width="960" height="540" xmlns="http://www.w3.org/2000/svg" xmlns:xlink="http://www.w3.org/1999/xlink" version="1.1"><rect x="0" y="0" width="960" height="540" fill="#006481"></rect><path d="M0 353L22.8 369.8C45.7 386.7 91.3 420.3 137 419.2C182.7 418 228.3 382 274 383.5C319.7 385 365.3 424 411.2 435.2C457 446.3 503 429.7 548.8 413.8C594.7 398 640.3 383 686 374.5C731.7 366 777.3 364 823 372.5C868.7 381 914.3 400 937.2 409.5L960 419L960 541L937.2 541C914.3 541 868.7 541 823 541C777.3 541 731.7 541 686 541C640.3 541 594.7 541 548.8 541C503 541 457 541 411.2 541C365.3 541 319.7 541 274 541C228.3 541 182.7 541 137 541C91.3 541 45.7 541 22.8 541L0 541Z" fill="#FFE032" stroke-linecap="round" stroke-linejoin="miter"></path></svg>